<mxfile host="Electron" modified="2024-01-03T10:00:01.163Z" agent="Mozilla/5.0 (Windows NT 10.0; Win64; x64) AppleWebKit/537.36 (KHTML, like Gecko) draw.io/21.2.8 Chrome/112.0.5615.165 Electron/24.2.0 Safari/537.36" etag="cm0yoLcfUH9hCLngrTZ-" version="21.2.8" type="device">
  <diagram name="Page-1" id="inyzw6thA6NWit9Locvp">
    <mxGraphModel dx="724" dy="497" grid="1" gridSize="10" guides="1" tooltips="1" connect="1" arrows="1" fold="1" page="1" pageScale="1" pageWidth="827" pageHeight="1169" math="0" shadow="0">
      <root>
        <mxCell id="0" />
        <mxCell id="1" parent="0" />
        <mxCell id="wAXCah57d7f3GrAPVdak-1" value="" style="rounded=1;whiteSpace=wrap;html=1;strokeWidth=2;fillColor=#f5f5f5;fontColor=#333333;strokeColor=#0d0c0c;" vertex="1" parent="1">
          <mxGeometry x="70" y="170" width="480" height="240" as="geometry" />
        </mxCell>
        <mxCell id="wAXCah57d7f3GrAPVdak-2" value="&lt;b&gt;&lt;font style=&quot;font-size: 16px;&quot;&gt;Subscription&lt;br&gt;State&lt;/font&gt;&lt;/b&gt;" style="rounded=1;whiteSpace=wrap;html=1;fillColor=#ffe6cc;strokeColor=#000000;strokeWidth=2;" vertex="1" parent="1">
          <mxGeometry x="100" y="230" width="130" height="60" as="geometry" />
        </mxCell>
        <mxCell id="wAXCah57d7f3GrAPVdak-3" value="&lt;b style=&quot;font-size: 16px;&quot;&gt;&lt;span style=&quot;&quot;&gt;Consumer&lt;br&gt;&lt;/span&gt;Coordinator&lt;/b&gt;" style="rounded=1;whiteSpace=wrap;html=1;fillColor=#dae8fc;strokeColor=#020203;strokeWidth=2;" vertex="1" parent="1">
          <mxGeometry x="260" y="230" width="130" height="60" as="geometry" />
        </mxCell>
        <mxCell id="wAXCah57d7f3GrAPVdak-4" value="&lt;span style=&quot;font-size: 16px;&quot;&gt;&lt;b&gt;Fetcher&lt;/b&gt;&lt;/span&gt;" style="rounded=1;whiteSpace=wrap;html=1;fillColor=#f8cecc;strokeColor=#000000;strokeWidth=2;" vertex="1" parent="1">
          <mxGeometry x="100" y="310" width="130" height="60" as="geometry" />
        </mxCell>
        <mxCell id="wAXCah57d7f3GrAPVdak-5" value="&lt;span style=&quot;font-size: 16px;&quot;&gt;&lt;b&gt;Partition&lt;br&gt;Assigner&lt;br&gt;&lt;/b&gt;&lt;/span&gt;" style="rounded=1;whiteSpace=wrap;html=1;fillColor=#e1d5e7;strokeColor=#000000;strokeWidth=2;" vertex="1" parent="1">
          <mxGeometry x="260" y="310" width="130" height="60" as="geometry" />
        </mxCell>
        <mxCell id="wAXCah57d7f3GrAPVdak-6" value="&lt;span style=&quot;font-size: 16px;&quot;&gt;&lt;b&gt;Consumer&lt;br&gt;Network&lt;br&gt;Client&lt;br&gt;&lt;/b&gt;&lt;/span&gt;" style="rounded=1;whiteSpace=wrap;html=1;fillColor=#d5e8d4;strokeColor=#21231f;strokeWidth=2;rotation=-90;" vertex="1" parent="1">
          <mxGeometry x="400" y="250" width="140" height="100" as="geometry" />
        </mxCell>
        <mxCell id="wAXCah57d7f3GrAPVdak-7" value="&lt;b&gt;&lt;font style=&quot;font-size: 18px;&quot;&gt;Consumer&lt;/font&gt;&lt;/b&gt;" style="text;html=1;align=center;verticalAlign=middle;resizable=0;points=[];autosize=1;strokeColor=none;fillColor=none;" vertex="1" parent="1">
          <mxGeometry x="255" y="171" width="110" height="40" as="geometry" />
        </mxCell>
      </root>
    </mxGraphModel>
  </diagram>
</mxfile>
